<?xml version="1.0" standalone="no"?>
<!DOCTYPE svg PUBLIC "-//W3C//DTD SVG 20010904//EN"
 "http://www.w3.org/TR/2001/REC-SVG-20010904/DTD/svg10.dtd">
<svg version="1.0" xmlns="http://www.w3.org/2000/svg"
 width="367.000000pt" height="245.000000pt" viewBox="0 0 367.000000 245.000000"
 preserveAspectRatio="xMidYMid meet">

<g transform="translate(0.000000,245.000000) scale(0.100000,-0.100000)"
fill="#000000" stroke="none">
<path d="M1405 2299 c-44 -5 -161 -7 -260 -4 -99 3 -185 2 -191 -2 -6 -4 -23
-29 -38 -55 -29 -51 -50 -62 -336 -194 -69 -31 -130 -62 -137 -68 -11 -10 -70
-137 -244 -521 -44 -98 -64 -154 -58 -161 17 -21 253 -137 343 -170 l91 -32 8
-413 c9 -467 7 -457 87 -496 69 -33 296 -53 619 -53 380 -1 528 19 583 77 53
57 48 6 63 673 l5 215 112 46 c109 44 290 131 315 151 14 11 -14 96 -112 338
-79 196 -131 309 -153 333 -22 25 -106 67 -262 132 -123 52 -126 54 -172 116
-75 102 -72 99 -130 98 -29 -1 -89 -6 -133 -10z m35 -133 c0 -25 -153 -156
-183 -156 -16 0 -157 136 -157 151 0 5 73 10 163 12 89 1 165 4 170 5 4 1 7
-4 7 -12z m156 -43 c7 -10 14 -26 14 -36 0 -19 -96 -217 -106 -217 -3 0 -33
16 -65 36 l-59 37 37 33 c21 18 41 33 45 34 3 0 30 29 59 65 29 36 55 65 57
65 3 0 11 -8 18 -17z m-596 -23 c0 -5 31 -43 70 -84 l70 -73 -57 -37 c-65 -42
-57 -47 -114 73 l-40 84 22 23 c23 25 49 32 49 14z m-150 -142 c23 -63 83
-175 117 -217 l18 -22 93 62 c51 34 94 60 96 58 2 -2 6 -361 9 -798 l5 -794
-151 6 c-138 6 -302 22 -318 33 -11 6 -22 424 -23 839 l-1 380 -28 3 c-49 6
-55 -8 -62 -149 -4 -71 -12 -132 -17 -135 -13 -8 -104 24 -203 73 -49 25 -93
48 -98 52 -8 8 225 517 246 538 13 13 266 131 283 132 6 1 21 -27 34 -61z
m1000 7 c182 -81 163 -64 220 -198 119 -277 168 -406 156 -416 -37 -29 -291
-135 -305 -127 -4 3 -11 61 -14 129 -4 68 -9 131 -12 139 -9 23 -40 28 -64 12
-19 -14 -20 -25 -19 -522 0 -279 -3 -547 -7 -596 -7 -87 -8 -88 -39 -101 -43
-18 -187 -34 -336 -37 l-125 -3 -2 30 c-1 17 -2 376 -2 799 -1 515 2 773 9
780 7 7 44 -13 117 -63 l107 -73 33 38 c19 22 59 90 90 152 65 129 45 123 193
57z"/>
<path d="M1352 1428 c-27 -27 -6 -68 35 -68 29 0 48 33 33 60 -12 22 -49 27
-68 8z"/>
<path d="M1356 1004 c-22 -22 -20 -41 8 -59 41 -27 80 10 56 55 -13 24 -43 26
-64 4z"/>
<path d="M2477 2118 c-4 -127 -12 -210 -25 -272 l-20 -89 43 -176 c23 -97 46
-192 49 -211 5 -28 -9 -81 -63 -245 -39 -116 -77 -237 -86 -270 -31 -117 -117
-551 -118 -598 -3 -86 40 -105 342 -148 124 -18 176 -21 346 -16 281 7 539 53
572 103 17 26 20 8 -66 389 -59 262 -66 288 -152 557 l-62 197 47 203 48 203
-27 135 c-19 93 -29 180 -32 278 l-6 142 -57 0 -57 0 -5 -85 c-9 -134 -61
-221 -166 -274 -95 -48 -200 -32 -282 45 -64 60 -92 126 -98 232 l-5 82 -57 0
-58 0 -5 -182z m717 -288 l16 -86 -43 -184 -44 -185 -238 0 -238 0 -47 193
-47 192 15 78 c8 42 16 79 18 81 2 2 21 -12 42 -31 140 -126 349 -124 497 5
22 20 43 32 46 29 3 -4 14 -45 23 -92z m22 -815 c40 -126 78 -261 84 -300 6
-38 31 -152 55 -253 25 -102 45 -186 45 -187 0 -5 -96 -24 -210 -43 -74 -11
-165 -16 -310 -16 -175 0 -226 4 -348 26 -79 14 -146 29 -150 32 -3 4 4 55 15
114 12 59 34 168 49 242 14 74 61 244 102 378 l76 242 260 -2 259 -3 73 -230z"/>
</g>
</svg>
