<?xml version="1.0" encoding="UTF-8"?>
<svg version="1.1" xmlns="http://www.w3.org/2000/svg" width="367" height="245">
<path d="M0 0 C121.11 0 242.22 0 367 0 C367 80.85 367 161.7 367 245 C245.89 245 124.78 245 0 245 C0 164.15 0 83.3 0 0 Z " fill="#FEFE01" transform="translate(0,0)"/>
<path d="M0 0 C4.81927711 -1.05147864 4.81927711 -1.05147864 8 0 C10.66113811 2.81307911 12.76454485 5.77166031 14.921875 8.984375 C18.05452246 13.53024689 20.84195824 16.22633475 25.96484375 18.33203125 C27.40355835 18.9355542 27.40355835 18.9355542 28.87133789 19.55126953 C30.38908813 20.17557861 30.38908813 20.17557861 31.9375 20.8125 C45.69434162 26.66369037 45.69434162 26.66369037 51.5625 29.625 C52.49191406 30.09164062 53.42132813 30.55828125 54.37890625 31.0390625 C62.44578163 37.07419132 65.65040632 46.45795729 69.3125 55.5 C69.87874513 56.876421 70.44548268 58.25263953 71.01269531 59.62866211 C74.54069583 68.22766839 77.95473604 76.87157398 81.25 85.5625 C81.80554565 87.02236328 81.80554565 87.02236328 82.37231445 88.51171875 C84.03847129 92.99847819 85.45818878 97.21134499 86 102 C74.93121448 108.10930465 63.80097863 113.45958881 52 118 C51.27312988 118.28391602 50.54625977 118.56783203 49.79736328 118.86035156 C44.24053363 121 44.24053363 121 42 121 C42.00523682 121.78906738 42.01047363 122.57813477 42.01586914 123.39111328 C42.06990277 132.99815576 42.05878806 142.60402286 42.01245117 152.21105957 C42.00392952 154.11982617 41.99700777 156.02860039 41.99145508 157.93737793 C41.97304374 164.10592126 41.92648357 170.27328486 41.84640503 176.44134521 C41.82393784 178.46816449 41.80993755 180.49509662 41.80471802 182.52203369 C41.73523641 204.0737627 41.73523641 204.0737627 36 211 C23.81037638 222.08998769 -2.09963245 218.46238058 -17.42480469 218.39111328 C-21.10309063 218.37417984 -24.78071808 218.38409671 -28.45898056 218.40140915 C-42.78498795 218.45884795 -56.99552313 218.20037267 -71.2578125 216.7265625 C-72.36381805 216.61871429 -73.46982361 216.51086609 -74.60934448 216.39974976 C-81.92500542 215.53538324 -87.15036654 213.87060892 -92 208 C-92.9013438 205.2959686 -93.16992309 203.4985899 -93.28125 200.70092773 C-93.31801849 199.8287561 -93.35478699 198.95658447 -93.39266968 198.0579834 C-93.42808868 197.10943481 -93.46350769 196.16088623 -93.5 195.18359375 C-93.54033356 194.19097534 -93.58066711 193.19835693 -93.6222229 192.17565918 C-93.75268263 188.92976807 -93.87654229 185.68366439 -94 182.4375 C-94.08754545 180.21491794 -94.17527408 177.99234308 -94.26318359 175.76977539 C-94.96354224 157.84994184 -95.54055789 139.92758036 -96 122 C-96.969375 121.6596875 -97.93875 121.319375 -98.9375 120.96875 C-112.99235042 115.92804808 -125.967382 109.25562231 -139 102 C-136.91506037 93.94660942 -133.70644364 86.67713037 -130.125 79.1875 C-128.95696871 76.72452117 -127.79402629 74.2591683 -126.6328125 71.79296875 C-126.33489807 71.16139862 -126.03698364 70.52982849 -125.7300415 69.87911987 C-123.55261101 65.23974071 -121.47207609 60.56348624 -119.4296875 55.86328125 C-118.84881129 54.5342542 -118.26791956 53.20523393 -117.68701172 51.8762207 C-116.84726522 49.95317177 -116.01221544 48.0287432 -115.19146729 46.09750366 C-114.43129665 44.30985836 -113.65347715 42.52974954 -112.875 40.75 C-112.43929687 39.73421875 -112.00359375 38.7184375 -111.5546875 37.671875 C-108.1231381 31.77443834 -102.34263745 29.54841249 -96.375 26.84765625 C-94.68219684 26.06335568 -92.98949147 25.27884401 -91.296875 24.49414062 C-88.64561368 23.2748847 -85.99279161 22.05921114 -83.33789062 20.84790039 C-80.76247115 19.66972712 -78.19356221 18.47818927 -75.625 17.28515625 C-74.83528809 16.92978287 -74.04557617 16.57440948 -73.23193359 16.20826721 C-68.62220341 14.05855886 -65.47620657 11.81565458 -62 8 C-60.67432801 7.31822584 -59.34246312 6.64808564 -58 6 C-57.34 5.01 -56.68 4.02 -56 3 C-51.34285342 1.4292331 -46.18554263 1.8742433 -41.32421875 1.90234375 C-40.3990596 1.9037587 -39.47390045 1.90517365 -38.52070618 1.90663147 C-35.57627073 1.91221285 -32.63191233 1.92476195 -29.6875 1.9375 C-27.68685006 1.94251741 -25.68619892 1.94707989 -23.68554688 1.95117188 C-18.79033506 1.96217619 -13.89518058 1.97942802 -9 2 C-9.99 2.33 -10.98 2.66 -12 3 C-11.814375 3.928125 -11.62875 4.85625 -11.4375 5.8125 C-11 9 -11 9 -12 12 C-10.02 12.495 -10.02 12.495 -8 13 C-11.89914526 13.89734629 -15.61734298 14.1886822 -19.61328125 14.31640625 C-20.86044922 14.35830078 -22.10761719 14.40019531 -23.39257812 14.44335938 C-24.68615234 14.48267578 -25.97972656 14.52199219 -27.3125 14.5625 C-29.28186523 14.62727539 -29.28186523 14.62727539 -31.29101562 14.69335938 C-34.52724288 14.79927227 -37.76354458 14.90134885 -41 15 C-39.58474822 16.58459815 -38.1677358 18.16762391 -36.75 19.75 C-35.96109375 20.63171875 -35.1721875 21.5134375 -34.359375 22.421875 C-31.28402689 25.81589959 -31.28402689 25.81589959 -28 29 C-23.77101394 28.93821287 -20.92959531 26.87940357 -17.5 24.5625 C-14.07283411 22.25686452 -10.89178034 20.40301502 -7 19 C-7 20.32 -7 21.64 -7 23 C-6.34 23 -5.68 23 -5 23 C-5.33 23.99 -5.66 24.98 -6 26 C-6.66 26 -7.32 26 -8 26 C-7.896875 26.886875 -7.79375 27.77375 -7.6875 28.6875 C-8.09498572 33.00684858 -9.7722703 34.25642975 -13 37 C-9.04 39.31 -5.08 41.62 -1 44 C-0.34 42.35 0.32 40.7 1 39 C1.87205078 37.25589844 1.87205078 37.25589844 2.76171875 35.4765625 C3.07560547 34.8475 3.38949219 34.2184375 3.71289062 33.5703125 C4.36188293 32.27492906 5.02337545 30.98573222 5.69726562 29.703125 C7.95846592 25.09610569 8.20504673 22.15307274 7 17 C5.88625 18.2375 5.88625 18.2375 4.75 19.5 C2 22 2 22 -2 22 C-1.814375 21.484375 -1.62875 20.96875 -1.4375 20.4375 C-0.83905509 17.84859042 -0.83905509 17.84859042 -1.5 14.625 C-1.99019389 11.07109427 -1.7633835 8.47763594 -1 5 C-2.65 4.67 -4.3 4.34 -6 4 C-5.67 3.34 -5.34 2.68 -5 2 C-3.35 2 -1.7 2 0 2 C0 1.34 0 0.68 0 0 Z " fill="#7616A9" transform="translate(152,14)"/>
<path d="M0 0 C3.96 0 7.92 0 12 0 C12.14695312 1.68416016 12.14695312 1.68416016 12.296875 3.40234375 C13.40559929 14.94596851 14.96885745 24.85509106 24 33 C30.44704356 38.09135683 38.12496779 37.90971784 46 37 C54.02823683 34.65790907 58.68894081 28.82938256 62.984375 21.96484375 C65.29652626 17.49172036 65.2961512 12.69273509 65.5625 7.75 C65.62727539 6.63238281 65.62727539 6.63238281 65.69335938 5.4921875 C65.79896725 3.661651 65.89994201 1.83084824 66 0 C70.29 0 74.58 0 79 0 C79.05607422 2.3203125 79.05607422 2.3203125 79.11328125 4.6875 C79.4701914 16.77576473 80.29870843 28.20252251 83 40 C85.98610345 53.25538604 84.40131605 63.74110751 81 76.75 C80.42415109 78.97368502 79.8519442 81.19810869 79.28808594 83.42486572 C78.93932523 84.80024724 78.5836269 86.17389555 78.21972656 87.54534912 C76.36511984 94.81661092 77.0377468 99.99787234 79.484375 107.00390625 C79.74124084 107.76364243 79.99810669 108.5233786 80.26275635 109.30613708 C81.08334439 111.72791374 81.9161526 114.14526044 82.75 116.5625 C84.84675437 122.70379631 86.93087656 128.84934033 89 135 C89.38865234 136.15097168 89.77730469 137.30194336 90.17773438 138.48779297 C92.22030613 144.79155845 93.66244596 151.04304626 94.81080627 157.56906128 C95.78340649 163.04113409 96.97952481 168.44022196 98.26171875 173.84765625 C98.45911652 174.68380463 98.65651428 175.519953 98.8598938 176.38143921 C99.6738311 179.81847989 100.49292823 183.25422679 101.31958008 186.68823242 C101.93215572 189.239797 102.53503251 191.79350532 103.13671875 194.34765625 C103.3241716 195.11441177 103.51162445 195.8811673 103.70475769 196.67115784 C104.75941483 201.17817333 105.44997572 205.34157665 105 210 C101.81374556 214.66821884 95.26935649 215.54184051 90.05419922 216.59472656 C86.85374436 217.14658093 83.64966136 217.6461447 80.4375 218.125 C79.35275391 218.29386719 78.26800781 218.46273437 77.15039062 218.63671875 C68.43113272 219.9814009 59.91887494 221.15264637 51.09375 221.23828125 C50.25933884 221.24793915 49.42492767 221.25759705 48.56523132 221.26754761 C45.87677526 221.29227743 43.18855741 221.30493098 40.5 221.3125 C39.58392975 221.31545074 38.6678595 221.31840149 37.72402954 221.32144165 C23.07403834 221.33218106 9.31929443 220.28209106 -5 217 C-6.28519531 216.74992188 -7.57039062 216.49984375 -8.89453125 216.2421875 C-14.77940837 215.00401505 -19.21439802 213.83715808 -23 209 C-23.87632994 200.05169758 -21.45367496 191.27490742 -19.625 182.5625 C-19.30387415 181.00212029 -18.98355577 179.44157418 -18.6640625 177.88085938 C-18.04933915 174.88168333 -17.42796927 171.88400396 -16.80175781 168.88720703 C-16.19767063 165.95837754 -15.62999133 163.02990045 -15.0859375 160.08984375 C-11.88618087 144.2210085 -6.78056803 129.03587403 -1.20410156 113.87060547 C-0.30958914 111.42716412 0.56142213 108.97630682 1.4296875 106.5234375 C1.84044022 105.43571548 1.84044022 105.43571548 2.25949097 104.32601929 C4.94851236 96.63155239 3.50484011 89.95935058 1.125 82.3125 C-0.96320954 75.28092895 -2.71551812 68.22418789 -4 61 C-4.12181641 60.32050293 -4.24363281 59.64100586 -4.36914062 58.94091797 C-5.27596192 52.84670324 -4.40929258 47.72832889 -3.125 41.75 C-0.39694039 27.88159169 -0.1989378 14.09474284 0 0 Z " fill="#7514A9" transform="translate(248,15)"/>
<path d="M0 0 C6.85495329 2.10168001 13.32155692 4.77663663 19.8125 7.8125 C21.2037207 8.4322168 21.2037207 8.4322168 22.62304688 9.06445312 C23.96399414 9.6919043 23.96399414 9.6919043 25.33203125 10.33203125 C26.13358643 10.70046143 26.9351416 11.0688916 27.76098633 11.44848633 C33.4511547 15.39146092 35.5935788 22.3699614 38.07421875 28.5625 C38.44352005 29.47201416 38.81282135 30.38152832 39.1933136 31.31860352 C39.96884466 33.23353052 40.74101764 35.14982057 41.51000977 37.06738281 C42.68518492 39.99423415 43.87402905 42.91526016 45.06445312 45.8359375 C45.81853304 47.70279209 46.57181545 49.56996905 47.32421875 51.4375 C47.67836349 52.30640869 48.03250824 53.17531738 48.39738464 54.07055664 C50.11591133 58.38071133 51.47683012 62.34960109 52 67 C24.77419355 80 24.77419355 80 20 80 C19.970271 78.89543457 19.970271 78.89543457 19.93994141 77.76855469 C19.84462172 74.42867944 19.73497004 71.08942361 19.625 67.75 C19.5940625 66.59113281 19.563125 65.43226562 19.53125 64.23828125 C19.49257812 63.12324219 19.45390625 62.00820312 19.4140625 60.859375 C19.3826416 59.83295898 19.3512207 58.80654297 19.31884766 57.74902344 C19.00363375 55.03132927 18.38967649 53.33075565 17 51 C15.33388095 50.957279 13.66617115 50.95936168 12 51 C9.84224939 53.15775061 10.82414838 58.19451057 10.81054688 61.19116211 C10.80225357 62.15725906 10.79396027 63.12335602 10.78541565 64.11872864 C10.76796112 66.22764855 10.75280932 68.33658845 10.73963928 70.44553947 C10.71861732 73.79850665 10.691582 77.15137734 10.66296387 80.50428772 C10.60313115 87.64865409 10.5512279 94.79306754 10.5 101.9375 C10.44048952 110.16123544 10.3776507 118.38492625 10.30812073 126.60858345 C10.28189745 129.88397414 10.26085513 133.15936992 10.2401123 136.43479919 C10.1502611 148.31896506 9.80088082 160.14177989 9 172 C-7.2803375 178.8878351 -23.26627453 177 -41 177 C-41 124.2 -41 71.4 -41 17 C-35.37818536 17 -35.37818536 17 -31.8984375 19.58984375 C-31.16109375 20.12673828 -30.42375 20.66363281 -29.6640625 21.21679688 C-28.90867188 21.78462891 -28.15328125 22.35246094 -27.375 22.9375 C-25.86430448 24.05393461 -24.35137398 25.167353 -22.8359375 26.27734375 C-22.17126465 26.77484131 -21.5065918 27.27233887 -20.82177734 27.78491211 C-18.90777521 29.17703394 -18.90777521 29.17703394 -16 30 C-15.72671875 29.4328125 -15.4534375 28.865625 -15.171875 28.28125 C-13.96943991 25.9405097 -12.63648142 23.73626035 -11.25 21.5 C-7.81908134 15.83225692 -4.89799949 9.95311943 -2 4 C-1.3344158 2.66612598 -0.66794404 1.33269388 0 0 Z " fill="#FEFD03" transform="translate(171,43)"/>
<path d="M0 0 C0.27972656 0.79921875 0.55945313 1.5984375 0.84765625 2.421875 C4.35399194 12.02765638 8.70690534 20.89525688 15 29 C18.80443533 27.6412731 21.75456292 25.89350984 25 23.5 C28.42365713 20.97505287 30.93550074 19.6257997 35 18 C35 70.47 35 122.94 35 177 C10.74709302 177 10.74709302 177 0.25 175.5625 C-1.38388672 175.36043945 -1.38388672 175.36043945 -3.05078125 175.15429688 C-10.84567368 174.15432632 -10.84567368 174.15432632 -12 173 C-12.15442253 170.94833157 -12.23865802 168.89137156 -12.29663086 166.8347168 C-12.32553374 165.85727099 -12.32553374 165.85727099 -12.35502052 164.86007881 C-12.4179678 162.66073969 -12.47299718 160.46128627 -12.52734375 158.26171875 C-12.54776167 157.49478888 -12.56817959 156.727859 -12.58921623 155.93768883 C-13.12322397 135.87218353 -13.32678352 115.80142923 -13.53222656 95.73040771 C-13.5836493 90.77402285 -13.63868624 85.81767801 -13.69335938 80.86132812 C-13.79897857 71.24092005 -13.90080684 61.62047634 -14 52 C-17.47147842 51.25042843 -17.47147842 51.25042843 -21 51 C-21.99 60.57 -22.98 70.14 -24 80 C-31.62566381 78.30540804 -37.14967592 76.38227244 -44 73.0625 C-44.95261719 72.61970703 -45.90523437 72.17691406 -46.88671875 71.72070312 C-48.24216797 71.07198242 -48.24216797 71.07198242 -49.625 70.41015625 C-50.85089844 69.82439819 -50.85089844 69.82439819 -52.1015625 69.22680664 C-54 68 -54 68 -55 65 C-54.20239258 62.77709961 -54.20239258 62.77709961 -52.89453125 60.15234375 C-52.41153564 59.1665332 -51.92854004 58.18072266 -51.4309082 57.16503906 C-50.8968335 56.09995117 -50.36275879 55.03486328 -49.8125 53.9375 C-46.33730357 46.92428688 -42.92644783 39.93350765 -39.84375 32.73828125 C-39.33481201 31.5685376 -38.82587402 30.39879395 -38.30151367 29.19360352 C-37.32897515 26.94443877 -36.37758357 24.68597879 -35.45043945 22.41772461 C-32.24361026 15.10409436 -29.32745164 12.0386264 -22 9 C-20.35354008 8.18750391 -18.71032939 7.36839273 -17.0703125 6.54296875 C-15.42337155 5.75467818 -13.77492608 4.96952332 -12.125 4.1875 C-11.28453125 3.78080078 -10.4440625 3.37410156 -9.578125 2.95507812 C-8.77117187 2.57158203 -7.96421875 2.18808594 -7.1328125 1.79296875 C-6.40980957 1.4477417 -5.68680664 1.10251465 -4.94189453 0.74682617 C-3 0 -3 0 0 0 Z " fill="#FEFD02" transform="translate(83,43)"/>
<path d="M0 0 C17.16 0 34.32 0 52 0 C52.99 2.97 53.98 5.94 55 9 C56.21053878 12.42178963 57.42787039 15.84062 58.66210938 19.25390625 C62.50255284 30.01525442 65.54619884 40.80151977 67.8125 52 C70.24411443 63.7084228 72.94877479 75.32611256 75.81567383 86.93359375 C76.10079834 88.09246094 76.38592285 89.25132812 76.6796875 90.4453125 C76.93476074 91.47156738 77.18983398 92.49782227 77.45263672 93.55517578 C78 96 78 96 78 98 C45.55228216 105.56134601 8.21278468 108.73759489 -24 98 C-23.7038442 91.01072303 -22.47188357 84.60350224 -20.64013672 77.85986328 C-19.31089466 72.76036509 -18.49827505 67.69928743 -17.79833984 62.47875977 C-15.9271173 48.7596985 -12.12751282 36.242017 -7.53515625 23.24609375 C-4.84517188 15.55746354 -2.42963338 7.77482682 0 0 Z " fill="#FEFD02" transform="translate(262,120)"/>
<path d="M0 0 C4.81927711 -1.05147864 4.81927711 -1.05147864 8 0 C10.66113811 2.81307911 12.76454485 5.77166031 14.921875 8.984375 C18.05452246 13.53024689 20.84195824 16.22633475 25.96484375 18.33203125 C27.40355835 18.9355542 27.40355835 18.9355542 28.87133789 19.55126953 C30.38908813 20.17557861 30.38908813 20.17557861 31.9375 20.8125 C45.69434162 26.66369037 45.69434162 26.66369037 51.5625 29.625 C52.49191406 30.09164062 53.42132813 30.55828125 54.37890625 31.0390625 C62.10827832 36.82169257 65.38614351 45.69113667 68.9519043 54.35375977 C69.81221795 56.43681707 70.69673999 58.50837107 71.58398438 60.58007812 C78.55974505 77.13190479 78.55974505 77.13190479 76.15966797 83.08398438 C75.0625 85.0625 75.0625 85.0625 73 88 C70.75415039 88.05786133 70.75415039 88.05786133 68 87 C66.18683236 84.22244803 65.10634146 81.16561861 63.93359375 78.07421875 C63.39243675 76.72551445 63.39243675 76.72551445 62.84034729 75.3495636 C61.68729101 72.46925588 60.56082625 69.57951868 59.4375 66.6875 C58.30744518 63.80765184 57.17174243 60.93039438 56.02394104 58.05757141 C55.31046575 56.26898569 54.60764936 54.47610198 53.91685486 52.67863464 C51.32843534 46.14732874 48.74539995 42.55985976 42.26171875 39.4921875 C41.35873047 39.06292969 40.45574219 38.63367187 39.52539062 38.19140625 C38.58888672 37.75699219 37.65238281 37.32257812 36.6875 36.875 C35.30014648 36.21177734 35.30014648 36.21177734 33.88476562 35.53515625 C28.98234083 33.22854274 24.26410882 31.29242948 19 30 C18.62488281 30.83402344 18.24976563 31.66804688 17.86328125 32.52734375 C13.58562132 41.93388561 9.17742962 50.70459451 3 59 C-1.5310854 58.46985472 -4.19381464 56.71280295 -7.8125 54 C-8.78832031 53.278125 -9.76414062 52.55625 -10.76953125 51.8125 C-11.50558594 51.214375 -12.24164063 50.61625 -13 50 C-13 49.67 -13 49.34 -13 49 C-11.35 49 -9.7 49 -8 49 C-8 48.34 -8 47.68 -8 47 C-9.485 46.505 -9.485 46.505 -11 46 C-10.34 44.68 -9.68 43.36 -9 42 C-13.455 40.02 -13.455 40.02 -18 38 C-18 36.68 -18 35.36 -18 34 C-19.485 34.495 -19.485 34.495 -21 35 C-21.66 34.01 -22.32 33.02 -23 32 C-27.81122847 33.52555966 -27.81122847 33.52555966 -31 37 C-36.2175101 36.85568589 -39.83255342 36.02515393 -43.8203125 32.5234375 C-47.15674153 28.83682933 -50.24106774 25.13839839 -53 21 C-53.66 21 -54.32 21 -55 21 C-55.33 21.66 -55.66 22.32 -56 23 C-56.66 23 -57.32 23 -58 23 C-58 26.63 -58 30.26 -58 34 C-64.3255814 36.31127013 -64.3255814 36.31127013 -67.4375 34.875 C-69 33 -69 33 -69 29 C-72.12663346 30.39219385 -75.25098262 31.78944683 -78.375 33.1875 C-79.24511719 33.57486328 -80.11523438 33.96222656 -81.01171875 34.36132812 C-82.79469868 35.16036728 -84.56914442 35.97868357 -86.33520508 36.81445312 C-89 38 -89 38 -91.5769043 38.77929688 C-98.27763626 41.14158882 -100.67706946 45.14020894 -103.66015625 51.2578125 C-105.18441997 54.52313386 -106.62673509 57.82003173 -108.0625 61.125 C-108.82458384 62.81250609 -109.58953435 64.49872066 -110.35742188 66.18359375 C-113.95358641 73.98191388 -113.95358641 73.98191388 -117 82 C-117.66 82 -118.32 82 -119 82 C-119 81.34 -119 80.68 -119 80 C-119.66 79.67 -120.32 79.34 -121 79 C-120.01 76.03 -119.02 73.06 -118 70 C-119.32 69.34 -120.64 68.68 -122 68 C-122.91064453 66.28710938 -122.91064453 66.28710938 -123 64 C-121.99951172 60.94726562 -121.99951172 60.94726562 -120.4296875 57.40625 C-120.15158234 56.77771118 -119.87347717 56.14917236 -119.58694458 55.50158691 C-118.9957129 54.17441029 -118.39854677 52.84986368 -117.79589844 51.52783203 C-116.88164433 49.51463091 -115.99454323 47.49097213 -115.109375 45.46484375 C-114.53025334 44.17375691 -113.94957348 42.88336766 -113.3671875 41.59375 C-112.57997314 39.84094727 -112.57997314 39.84094727 -111.77685547 38.05273438 C-108.20279894 31.91231079 -102.59910424 29.66448092 -96.375 26.84765625 C-94.68219684 26.06335568 -92.98949147 25.27884401 -91.296875 24.49414062 C-88.64561368 23.2748847 -85.99279161 22.05921114 -83.33789062 20.84790039 C-80.76247115 19.66972712 -78.19356221 18.47818927 -75.625 17.28515625 C-74.44043213 16.75209618 -74.44043213 16.75209618 -73.23193359 16.20826721 C-68.62220341 14.05855886 -65.47620657 11.81565458 -62 8 C-60.67432801 7.31822584 -59.34246312 6.64808564 -58 6 C-57.34 5.01 -56.68 4.02 -56 3 C-51.34285342 1.4292331 -46.18554263 1.8742433 -41.32421875 1.90234375 C-40.3990596 1.9037587 -39.47390045 1.90517365 -38.52070618 1.90663147 C-35.57627073 1.91221285 -32.63191233 1.92476195 -29.6875 1.9375 C-27.68685006 1.94251741 -25.68619892 1.94707989 -23.68554688 1.95117188 C-18.79033506 1.96217619 -13.89518058 1.97942802 -9 2 C-9.99 2.33 -10.98 2.66 -12 3 C-11.814375 3.928125 -11.62875 4.85625 -11.4375 5.8125 C-11 9 -11 9 -12 12 C-10.68 12.33 -9.36 12.66 -8 13 C-11.89914526 13.89734629 -15.61734298 14.1886822 -19.61328125 14.31640625 C-20.86044922 14.35830078 -22.10761719 14.40019531 -23.39257812 14.44335938 C-24.68615234 14.48267578 -25.97972656 14.52199219 -27.3125 14.5625 C-29.28186523 14.62727539 -29.28186523 14.62727539 -31.29101562 14.69335938 C-34.52724288 14.79927227 -37.76354458 14.90134885 -41 15 C-39.58474822 16.58459815 -38.1677358 18.16762391 -36.75 19.75 C-35.96109375 20.63171875 -35.1721875 21.5134375 -34.359375 22.421875 C-31.28402689 25.81589959 -31.28402689 25.81589959 -28 29 C-23.77101394 28.93821287 -20.92959531 26.87940357 -17.5 24.5625 C-14.07283411 22.25686452 -10.89178034 20.40301502 -7 19 C-7 20.32 -7 21.64 -7 23 C-6.34 23 -5.68 23 -5 23 C-5.495 24.485 -5.495 24.485 -6 26 C-6.66 26 -7.32 26 -8 26 C-7.896875 26.886875 -7.79375 27.77375 -7.6875 28.6875 C-8.09498572 33.00684858 -9.7722703 34.25642975 -13 37 C-9.04 39.31 -5.08 41.62 -1 44 C-0.34 42.35 0.32 40.7 1 39 C1.58136719 37.83726563 2.16273438 36.67453125 2.76171875 35.4765625 C3.07560547 34.8475 3.38949219 34.2184375 3.71289062 33.5703125 C4.36188293 32.27492906 5.02337545 30.98573222 5.69726562 29.703125 C7.95846592 25.09610569 8.20504673 22.15307274 7 17 C5.88625 18.2375 5.88625 18.2375 4.75 19.5 C2 22 2 22 -2 22 C-1.7215625 21.2265625 -1.7215625 21.2265625 -1.4375 20.4375 C-0.83905509 17.84859042 -0.83905509 17.84859042 -1.5 14.625 C-1.99019389 11.07109427 -1.7633835 8.47763594 -1 5 C-2.65 4.67 -4.3 4.34 -6 4 C-5.67 3.34 -5.34 2.68 -5 2 C-3.35 2 -1.7 2 0 2 C0 1.34 0 0.68 0 0 Z " fill="#6C0DA7" transform="translate(152,14)"/>
<path d="M0 0 C1.7386632 3.18122218 2.7657371 6.30980099 3.6875 9.8125 C4.09548828 11.30716797 4.09548828 11.30716797 4.51171875 12.83203125 C5.82898881 21.37847942 2.22091322 30.57603396 0.171875 38.83984375 C-1.47424202 45.48075945 -1.47424202 45.48075945 -2.625 52.21875 C-3 55 -3 55 -4 56 C-5.47354348 56.09304018 -6.95150591 56.11746265 -8.42797852 56.11352539 C-9.36887833 56.11344986 -10.30977814 56.11337433 -11.27919006 56.11329651 C-12.30209641 56.10813522 -13.32500275 56.10297394 -14.37890625 56.09765625 C-15.42070541 56.0962413 -16.46250458 56.09482635 -17.53587341 56.09336853 C-20.87811094 56.0877508 -24.22028257 56.0751953 -27.5625 56.0625 C-29.82226466 56.05748728 -32.08203037 56.05292398 -34.34179688 56.04882812 C-39.89455391 56.03777561 -45.44727225 56.02102024 -51 56 C-52.14612876 52.65362562 -53.22598492 49.35852247 -53.96484375 45.8984375 C-54.1237207 45.1667334 -54.28259766 44.4350293 -54.44628906 43.68115234 C-54.60838867 42.92012207 -54.77048828 42.1590918 -54.9375 41.375 C-56.09595382 36.00487932 -57.32184363 30.68151465 -58.75 25.375 C-60.88736634 16.86057344 -59.75549802 9.52670467 -58 1 C-57.34 1 -56.68 1 -56 1 C-55.360625 1.70125 -54.72125 2.4025 -54.0625 3.125 C-48.64542788 8.80157258 -40.71310252 12.63375891 -32.93359375 13.23828125 C-20.13171768 13.51005292 -11.55852866 10.52914865 -2 2 C-1.34 1.34 -0.68 0.68 0 0 Z " fill="#FEFC04" transform="translate(316,52)"/>
<path d="M0 0 C4.01829266 1.52604822 5.69667813 4.02112683 8.1875 7.4375 C12.34940551 12.70878761 15.51301 14.71083074 22 16 C22.66 16.33 23.32 16.66 24 17 C24.185625 16.38125 24.37125 15.7625 24.5625 15.125 C26.71437233 11.94397134 29.37533763 11.80548053 33 11 C33.66 11.99 34.32 12.98 35 14 C35.66 14 36.32 14 37 14 C37 15.32 37 16.64 37 18 C37.9075 18.0825 38.815 18.165 39.75 18.25 C43.40077839 19.09248732 44.63384583 20.17881618 47 23 C46.34 23 45.68 23 45 23 C45 23.99 45 24.98 45 26 C45.66 26.33 46.32 26.66 47 27 C47 27.66 47 28.32 47 29 C41.375 29.25 41.375 29.25 38 27 C36.35 26.67 34.7 26.34 33 26 C33 79.13 33 132.26 33 187 C32.67 187 32.34 187 32 187 C31.97494385 185.89301758 31.9498877 184.78603516 31.92407227 183.64550781 C31.32957575 155.30888074 31.32957575 155.30888074 30 127 C29.0409375 127.99 29.0409375 127.99 28.0625 129 C26 131 26 131 25 131 C23.92679644 137.0864382 23.87092984 143.0130734 23.90234375 149.18359375 C23.90446617 150.76685204 23.90446617 150.76685204 23.90663147 152.38209534 C23.91220278 155.73392643 23.92474998 159.08568929 23.9375 162.4375 C23.94251871 164.71809799 23.94708097 166.99869703 23.95117188 169.27929688 C23.9621628 174.85288763 23.97887224 180.42643894 24 186 C23.34 186 22.68 186 22 186 C21.82605235 172.06258452 21.65982789 158.12508461 21.5 144.1875 C21.48812275 143.15214615 21.4762455 142.1167923 21.46400833 141.05006409 C21.1360327 112.28296585 20.90315398 83.51908828 20.9375 54.75 C20.93878403 53.66636988 20.93878403 53.66636988 20.94009399 52.56084824 C20.95098389 44.04053905 20.97020839 35.52026486 21 27 C18.74877336 28.43560843 16.49899862 29.87340862 14.25 31.3125 C13.61578125 31.71662109 12.9815625 32.12074219 12.328125 32.53710938 C9.12825108 34.5870286 5.99921855 36.65970068 3 39 C-3.25345766 36.77561573 -6.02567114 29.53187279 -9 24 C-10.24222782 20.99897437 -11.14814119 18.14122935 -12 15 C-9.69 15 -7.38 15 -5 15 C-4.1558062 11.02022924 -3.55312735 7.02992782 -3 3 C-2.34 3 -1.68 3 -1 3 C-0.67 2.01 -0.34 1.02 0 0 Z " fill="#6E0DA9" transform="translate(97,34)"/>
<path d="M0 0 C0 0.66 0 1.32 0 2 C-0.99 2.33 -1.98 2.66 -3 3 C-2.01 3.66 -1.02 4.32 0 5 C-0.33 5.99 -0.66 6.98 -1 8 C-0.34 8.33 0.32 8.66 1 9 C0.34 9 -0.32 9 -1 9 C-1.11320856 14.08303686 -1.11320856 14.08303686 0 19 C-0.495 20.485 -0.495 20.485 -1 22 C2.16115776 20.63016497 2.9927092 20.0109362 5 17 C5.66 17 6.32 17 7 17 C9 20 9 20 8.875 22.671875 C7.77343934 26.86173966 6.00322176 30.42566754 4 34.25 C3.63132813 34.96929687 3.26265625 35.68859375 2.8828125 36.4296875 C1.92837002 38.28980533 0.96480898 40.1452379 0 42 C-0.495 42.99 -0.495 42.99 -1 44 C-5.77609498 42.35821735 -9.79382904 39.73453298 -14 37 C-13.195625 36.113125 -12.39125 35.22625 -11.5625 34.3125 C-9.24175199 31.55620544 -8.57946527 29.57336917 -8 26 C-6.4375 24.1875 -6.4375 24.1875 -5 23 C-5.66 23 -6.32 23 -7 23 C-7.33 23.66 -7.66 24.32 -8 25 C-7.67 23.02 -7.34 21.04 -7 19 C-7.54527344 19.37511719 -8.09054688 19.75023438 -8.65234375 20.13671875 C-12.64091792 22.84349472 -16.66274878 25.4834943 -20.8125 27.9375 C-21.87404297 28.56978516 -21.87404297 28.56978516 -22.95703125 29.21484375 C-25 30 -25 30 -26.91015625 29.9609375 C-30.06385728 28.5108245 -32.24556309 26.14646355 -34.625 23.6875 C-35.11484375 23.20087891 -35.6046875 22.71425781 -36.109375 22.21289062 C-38.74462079 19.53804415 -40.29420059 17.41159881 -42 14 C-32.43 13.67 -22.86 13.34 -13 13 C-12.10305206 9.41220825 -11.91695883 6.65381163 -12 3 C-17.46264314 2.97523734 -22.92525343 2.95711026 -28.38793945 2.94506836 C-30.24536712 2.94004697 -32.10279085 2.93322859 -33.96020508 2.92456055 C-36.63363621 2.91239883 -39.30701496 2.90674967 -41.98046875 2.90234375 C-42.80773972 2.89718246 -43.63501068 2.89202118 -44.48735046 2.88670349 C-50.32467485 2.82352464 -50.32467485 2.82352464 -56 4 C-56.99 5.485 -56.99 5.485 -58 7 C-58.66 6.67 -59.32 6.34 -60 6 C-59.20239258 3.54418945 -59.20239258 3.54418945 -57 1 C-53.27929168 0.18098004 -49.55877601 0.27915844 -45.76171875 0.29296875 C-44.64819534 0.27784744 -43.53467194 0.26272614 -42.3874054 0.24714661 C-38.82056791 0.20411512 -35.25457149 0.19542522 -31.6875 0.1875 C-29.29489903 0.16436198 -26.90231848 0.13899811 -24.50976562 0.11132812 C-16.33993779 0.02463736 -8.17028478 -0.00965443 0 0 Z " fill="#670BA6" transform="translate(152,14)"/>
<path d="M0 0 C-1.33333333 2.66666667 -2.66666667 5.33333333 -4 8 C-4.66 8 -5.32 8 -6 8 C-6 8.66 -6 9.32 -6 10 C-4.68 10.33 -3.36 10.66 -2 11 C-2.92510376 11.22598877 -2.92510376 11.22598877 -3.86889648 11.45654297 C-10.88490857 13.94771147 -13.57171729 17.82099765 -16.66015625 24.2578125 C-18.18211049 27.524191 -19.62673602 30.82003386 -21.0625 34.125 C-21.82458384 35.81250609 -22.58953435 37.49872066 -23.35742188 39.18359375 C-26.95358641 46.98191388 -26.95358641 46.98191388 -30 55 C-30.66 55 -31.32 55 -32 55 C-32 54.34 -32 53.68 -32 53 C-32.66 52.67 -33.32 52.34 -34 52 C-33.01 49.03 -32.02 46.06 -31 43 C-32.32 42.34 -33.64 41.68 -35 41 C-35.91064453 39.28710938 -35.91064453 39.28710938 -36 37 C-34.99951172 33.94726562 -34.99951172 33.94726562 -33.4296875 30.40625 C-33.01252975 29.46344177 -33.01252975 29.46344177 -32.58694458 28.50158691 C-31.9957129 27.17441029 -31.39854677 25.84986368 -30.79589844 24.52783203 C-29.88164433 22.51463091 -28.99454323 20.49097213 -28.109375 18.46484375 C-27.53025334 17.17375691 -26.94957348 15.88336766 -26.3671875 14.59375 C-25.57997314 12.84094727 -25.57997314 12.84094727 -24.77685547 11.05273438 C-19.75727339 2.42881924 -9.57862662 -2.30596567 0 0 Z " fill="#6D10A7" transform="translate(65,41)"/>
<path d="M0 0 C4.0352998 1.54426052 5.9494858 4.13977869 8.5625 7.5 C10.97713155 10.5946374 12.72421308 12.81614205 16 15 C16 15.99 16 16.98 16 18 C13.5 19.6875 13.5 19.6875 11 21 C11.66 21.33 12.32 21.66 13 22 C13 21.34 13 20.68 13 20 C13.99 20.33 14.98 20.66 16 21 C15.67 21.66 15.34 22.32 15 23 C15.66 23.33 16.32 23.66 17 24 C16.01 24.33 15.02 24.66 14 25 C14 25.66 14 26.32 14 27 C14.66 27.33 15.32 27.66 16 28 C14.7057529 31.88274131 13.10730577 32.52690748 9.6875 34.6875 C8.72199219 35.31011719 7.75648437 35.93273437 6.76171875 36.57421875 C4 38 4 38 0 38 C-5.07700799 32.76398058 -12 22.52784418 -12 15 C-9.69 15 -7.38 15 -5 15 C-4.1558062 11.02022924 -3.55312735 7.02992782 -3 3 C-2.34 3 -1.68 3 -1 3 C-0.67 2.01 -0.34 1.02 0 0 Z " fill="#6E0FA7" transform="translate(97,34)"/>
<path d="M0 0 C0.33 0 0.66 0 1 0 C1 30.69 1 61.38 1 93 C-1.64 93.33 -4.28 93.66 -7 94 C-7.495 95.485 -7.495 95.485 -8 97 C-8.66 97 -9.32 97 -10 97 C-10.33 98.65 -10.66 100.3 -11 102 C-11.66 102 -12.32 102 -13 102 C-13 102.66 -13 103.32 -13 104 C-16.33357738 103.8594438 -19.66679389 103.71158198 -23 103.5625 C-23.93457031 103.52318359 -24.86914062 103.48386719 -25.83203125 103.44335938 C-31.27188123 103.19609347 -36.60694577 102.75680832 -42 102 C-40.88625 100.9171875 -40.88625 100.9171875 -39.75 99.8125 C-36.98938898 97.12498365 -36.98938898 97.12498365 -35 94.25 C-33 92 -33 92 -28 91 C-14.14 91.495 -14.14 91.495 0 92 C0 61.64 0 31.28 0 0 Z " fill="#7A17AB" transform="translate(118,128)"/>
<path d="M0 0 C11.22 0 22.44 0 34 0 C28.30769231 7.96923077 28.30769231 7.96923077 24 11.375 C23.175 12.04273438 22.35 12.71046875 21.5 13.3984375 C17.27606389 16.10439657 17.27606389 16.10439657 14 16 C11.65694823 14.16225336 9.81241067 12.47062363 7.8125 10.3125 C7.27947266 9.76916016 6.74644531 9.22582031 6.19726562 8.66601562 C3.43231813 5.78977465 1.83390534 3.66781069 0 0 Z " fill="#FEFB06" transform="translate(110,28)"/>
<path d="M0 0 C0.66 0 1.32 0 2 0 C4 3 4 3 3.875 5.671875 C2.77343934 9.86173966 1.00322176 13.42566754 -1 17.25 C-1.36867187 17.96929687 -1.73734375 18.68859375 -2.1171875 19.4296875 C-3.07162998 21.28980533 -4.03519102 23.1452379 -5 25 C-5.33 25.66 -5.66 26.32 -6 27 C-10.77609498 25.35821735 -14.79382904 22.73453298 -19 20 C-16.13832394 17.04889656 -13.21577005 14.32632101 -10.0625 11.6875 C-6.51014841 8.63878994 -3.85132554 5.36773341 -1.2265625 1.50390625 C-0.82179687 1.00761719 -0.41703125 0.51132812 0 0 Z " fill="#FDF80D" transform="translate(157,31)"/>
<path d="M0 0 C4.0352998 1.54426052 5.9494858 4.13977869 8.5625 7.5 C10.97713155 10.5946374 12.72421308 12.81614205 16 15 C16 15.99 16 16.98 16 18 C14.390625 19.421875 14.390625 19.421875 12.25 20.75 C11.55390625 21.19859375 10.8578125 21.6471875 10.140625 22.109375 C8 23 8 23 5.96875 23.09765625 C2.70128554 21.27591515 1.68575586 17.98111161 0.25 14.6875 C-0.06582031 14.01009766 -0.38164063 13.33269531 -0.70703125 12.63476562 C-2.28438738 9.14204848 -3 6.88826202 -3 3 C-2.34 3 -1.68 3 -1 3 C-0.67 2.01 -0.34 1.02 0 0 Z " fill="#FEF90A" transform="translate(97,34)"/>
<path d="M0 0 C1.81838372 1.81838372 1.13043201 4.64933041 1.1328125 7.09375 C1.13413177 7.73643829 1.13545105 8.37912659 1.1368103 9.04129028 C1.138757 11.1942394 1.13230308 13.34706356 1.125 15.5 C1.12411377 16.23643738 1.12322754 16.97287476 1.12231445 17.73162842 C1.09519457 37.16041883 0.55291548 56.58031437 0 76 C-0.33 76 -0.66 76 -1 76 C-1 54.88 -1 33.76 -1 12 C-4.95653256 15.73280929 -4.95653256 15.73280929 -6.25 20.25 C-6.4975 21.4875 -6.745 22.725 -7 24 C-7.33 24 -7.66 24 -8 24 C-8.25465752 6.20226923 -8.25465752 6.20226923 -7 0 C-4.31633121 -1.3418344 -2.84719317 -0.73004953 0 0 Z " fill="#5E03A6" transform="translate(69,94)"/>
<path d="M0 0 C13.86 0 27.72 0 42 0 C41.01 0.33 40.02 0.66 39 1 C39.185625 1.928125 39.37125 2.85625 39.5625 3.8125 C40 7 40 7 39 10 C40.32 10.33 41.64 10.66 43 11 C38.12338764 12.26691373 33.31252274 12.15087812 28.3125 12.125 C27.42143555 12.12306641 26.53037109 12.12113281 25.61230469 12.11914062 C19.68199272 12.08011115 13.88408246 11.78454433 8 11 C8 10.67 8 10.34 8 10 C15.26 9.67 22.52 9.34 30 9 C29.01 6.69 28.02 4.38 27 2 C26.67 2.66 26.34 3.32 26 4 C26 3.34 26 2.68 26 2 C13.13 1.505 13.13 1.505 0 1 C0 0.67 0 0.34 0 0 Z " fill="#5804A4" transform="translate(101,16)"/>
<path d="M0 0 C2.5625 0.4375 2.5625 0.4375 4.2043457 2.5925293 C5.74088253 5.81116379 5.91004065 7.84735779 5.85546875 11.39453125 C5.84580078 12.50634766 5.83613281 13.61816406 5.82617188 14.76367188 C5.80103516 15.91416016 5.77589844 17.06464844 5.75 18.25 C5.73646484 19.41982422 5.72292969 20.58964844 5.70898438 21.79492188 C5.67370278 24.676252 5.6244028 27.55663904 5.5625 30.4375 C5.2325 30.4375 4.9025 30.4375 4.5625 30.4375 C3.58107619 26.19016168 3.25329621 21.96425467 3 17.625 C2.95681641 16.93212891 2.91363281 16.23925781 2.86914062 15.52539062 C2.76388547 13.82961314 2.66277137 12.13357948 2.5625 10.4375 C1.2425 10.4375 -0.0775 10.4375 -1.4375 10.4375 C-2.69493682 17.34221537 -2.66221663 24.24395204 -2.75390625 31.24609375 C-2.77450985 32.58130995 -2.79550714 33.91652012 -2.81687927 35.25172424 C-2.87174863 38.74505702 -2.92131094 42.23844518 -2.96972656 45.73187256 C-3.02020023 49.30502174 -3.07575049 52.87809171 -3.13085938 56.45117188 C-3.23801031 63.44654577 -3.33954862 70.4419914 -3.4375 77.4375 C-3.7675 77.4375 -4.0975 77.4375 -4.4375 77.4375 C-4.48377664 67.6932762 -4.51934536 57.94907841 -4.54112434 48.20476723 C-4.55157551 43.6804174 -4.5657589 39.15614259 -4.58837891 34.63183594 C-4.61005993 30.26818476 -4.62205858 25.90460587 -4.62725449 21.540905 C-4.63095879 19.87347653 -4.63819207 18.20605215 -4.64896011 16.53865433 C-4.6634122 14.20878705 -4.66548061 11.87922106 -4.66455078 9.54931641 C-4.67174133 8.85520157 -4.67893188 8.16108673 -4.68634033 7.44593811 C-4.65766788 0.83599167 -4.65766788 0.83599167 0 0 Z " fill="#8527A8" transform="translate(185.4375,92.5625)"/>
<path d="M0 0 C0.33 0 0.66 0 1 0 C1 30.69 1 61.38 1 93 C-1.64 93.33 -4.28 93.66 -7 94 C-7.33 94.99 -7.66 95.98 -8 97 C-8.66 97 -9.32 97 -10 97 C-10.33 98.65 -10.66 100.3 -11 102 C-11.66 102 -12.32 102 -13 102 C-13 102.66 -13 103.32 -13 104 C-19.93 103.67 -26.86 103.34 -34 103 C-34 102.34 -34 101.68 -34 101 C-27.73 101 -21.46 101 -15 101 C-14.67 99.02 -14.34 97.04 -14 95 C-14.66 94.34 -15.32 93.68 -16 93 C-13 92 -13 92 0 92 C0 61.64 0 31.28 0 0 Z " fill="#A145A9" transform="translate(118,128)"/>
<path d="M0 0 C3.96 0 7.92 0 12 0 C13.10087193 7.01805857 13.09733092 13.90565767 13 21 C12.34 20.01 11.68 19.02 11 18 C10.46375 17.5875 9.9275 17.175 9.375 16.75 C7.26352311 14.06266577 8 11.32747389 8 8 C7.01 7.34 6.02 6.68 5 6 C3.14125651 8.73344631 2.97690797 9.85278829 3.5 13.1875 C4.11360175 17.86621334 3.23409639 21.50217763 2 26 C1.67 26 1.34 26 1 26 C0.67 17.42 0.34 8.84 0 0 Z " fill="#5F05A4" transform="translate(248,15)"/>
<path d="M0 0 C3.96 0 7.92 0 12 0 C12 9.24 12 18.48 12 28 C9.76586987 24.64880481 9.76152238 23.5822245 9.8046875 19.67578125 C9.81113281 18.64775391 9.81757813 17.61972656 9.82421875 16.56054688 C9.84097656 15.48869141 9.85773438 14.41683594 9.875 13.3125 C9.88402344 12.22904297 9.89304687 11.14558594 9.90234375 10.02929688 C9.9259266 7.3526429 9.95883874 4.67643203 10 2 C7.36 2 4.72 2 2 2 C2.309375 3.2375 2.309375 3.2375 2.625 4.5 C3.0940915 8.87818732 2.23317492 11.79269734 1 16 C0.67 16 0.34 16 0 16 C0 10.72 0 5.44 0 0 Z " fill="#6F16A7" transform="translate(315,15)"/>
<path d="M0 0 C1.67542976 0.28604898 3.34385343 0.61781233 5 1 C3.68 1.33 2.36 1.66 1 2 C1 24.11 1 46.22 1 69 C0.67 69 0.34 69 0 69 C-0.15359422 60.15126358 -0.3017759 51.30245819 -0.4429636 42.45351505 C-0.50868791 38.34501734 -0.57630739 34.23656871 -0.64819336 30.12817383 C-0.71744175 26.16659657 -0.78179646 22.20496781 -0.84269524 18.24325371 C-0.86685236 16.72849049 -0.89280114 15.21375478 -0.92053413 13.69905281 C-0.95894714 11.58465001 -0.99110482 9.47024078 -1.02172852 7.35571289 C-1.04171402 6.14992081 -1.06169952 4.94412872 -1.08229065 3.70179749 C-1 1 -1 1 0 0 Z " fill="#7F1CAD" transform="translate(129,58)"/>
<path d="M0 0 C3.3 0 6.6 0 10 0 C10 1.32 10 2.64 10 4 C9.34 4 8.68 4 8 4 C8 3.34 8 2.68 8 2 C5.03217582 3.72325275 4.12026856 4.56518291 3.1875 7.9375 C2.83809413 10.83672014 2.83809413 10.83672014 3.546875 12.89453125 C4.1034104 15.48050179 3.70096206 17.19615176 3.0625 19.75 C2.86785156 20.54921875 2.67320312 21.3484375 2.47265625 22.171875 C2.23869141 23.07679687 2.23869141 23.07679687 2 24 C1.67 24 1.34 24 1 24 C0.67 16.08 0.34 8.16 0 0 Z " fill="#6A08A8" transform="translate(248,17)"/>
<path d="M0 0 C2.5 0.25 2.5 0.25 4.5 2.25 C4.75 4.75 4.75 4.75 4.5 7.25 C2.5 9.25 2.5 9.25 0 9.5 C-2.5 9.25 -2.5 9.25 -4.5 7.25 C-4.75 4.75 -4.75 4.75 -4.5 2.25 C-2.5 0.25 -2.5 0.25 0 0 Z " fill="#7E26A6" transform="translate(138.5,142.75)"/>
<path d="M0 0 C1.31625194 2.63250388 0.74813658 3.80179056 0.0625 6.625 C-0.13214844 7.44226563 -0.32679687 8.25953125 -0.52734375 9.1015625 C-0.76130859 10.04128906 -0.76130859 10.04128906 -1 11 C-1.66 11 -2.32 11 -3 11 C-3 10.34 -3 9.68 -3 9 C-3.66 9 -4.32 9 -5 9 C-5.33 10.32 -5.66 11.64 -6 13 C-6.33 8.71 -6.66 4.42 -7 0 C-4.30234372 -1.34882814 -2.84835666 -0.80338265 0 0 Z " fill="#7213A8" transform="translate(69,94)"/>
<path d="M0 0 C3 -0.3125 3 -0.3125 6 0 C6.66 0.66 7.32 1.32 8 2 C7.44444444 6.55555556 7.44444444 6.55555556 6 8 C3.66055264 7.71269945 1.3260857 7.38063221 -1 7 C-1.625 5.1875 -1.625 5.1875 -2 3 C-1.34 2.01 -0.68 1.02 0 0 Z " fill="#7827A4" transform="translate(135,101)"/>
<path d="M0 0 C1.75986897 5.14474258 -0.4903653 9.2846747 -2.25 14.1875 C-2.71986328 15.5787207 -2.71986328 15.5787207 -3.19921875 16.99804688 C-3.50988281 17.87912109 -3.82054687 18.76019531 -4.140625 19.66796875 C-4.42454102 20.47516357 -4.70845703 21.2823584 -5.00097656 22.11401367 C-6 24 -6 24 -9 25 C-3.38297872 3.38297872 -3.38297872 3.38297872 0 0 Z " fill="#8628A8" transform="translate(252,116)"/>
<path d="M0 0 C2.48049742 -0.13338546 4.91887385 -0.11405963 7.40200806 -0.04135132 C8.30780106 -0.03427658 9.21359406 -0.02720184 10.14683533 -0.01991272 C13.04132514 0.00808765 15.93388381 0.07083552 18.82778931 0.13442993 C20.78934992 0.15950555 22.75094084 0.18232001 24.71255493 0.20278931 C29.52254436 0.25793277 34.3310894 0.34424351 39.14028931 0.44692993 C39.14028931 0.77692993 39.14028931 1.10692993 39.14028931 1.44692993 C38.10621948 1.47198608 37.07214966 1.49704224 36.00674438 1.52285767 C32.15815543 1.61726423 28.30973302 1.71740284 24.46133423 1.81924438 C22.79796249 1.86246777 21.13454999 1.90415139 19.47109985 1.94424438 C17.07554862 2.00225325 14.68020023 2.06585822 12.28482056 2.13052368 C11.54504471 2.14723618 10.80526886 2.16394867 10.04307556 2.1811676 C4.51424498 2.30507339 4.51424498 2.30507339 -0.85971069 3.44692993 C-1.84971069 4.93192993 -1.84971069 4.93192993 -2.85971069 6.44692993 C-3.51971069 6.11692993 -4.17971069 5.78692993 -4.85971069 5.44692993 C-3.82006621 2.65975688 -3.05105749 0.73323712 0 0 Z " fill="#9448A2" transform="translate(96.85971069335938,14.553070068359375)"/>
<path d="M0 0 C2.90927691 2.90927691 2.90060359 6.33086961 3.5 10.25 C4.30049254 15.37843022 5.32667507 20.06887431 7 25 C6.625 27.375 6.625 27.375 6 29 C3.15344837 26.15344837 2.75246507 22.80899611 1.875 19 C1.69614258 18.23631104 1.51728516 17.47262207 1.33300781 16.68579102 C0.07159881 11.01005115 -0.36985404 5.82520107 0 0 Z " fill="#852CA5" transform="translate(254,63)"/>
<path d="M0 0 C0.96661363 3.12180401 0.98988909 5.52083795 0.5625 8.75 C0.46066406 9.54921875 0.35882813 10.3484375 0.25390625 11.171875 C0.12822266 12.07679687 0.12822266 12.07679687 0 13 C-0.33 13 -0.66 13 -1 13 C-1.66 16.63 -2.32 20.26 -3 24 C-3.66 24 -4.32 24 -5 24 C-3.89184084 15.79962224 -2.38318475 7.92806125 0 0 Z " fill="#8F35A6" transform="translate(320,72)"/>
<path d="M0 0 C0 0.66 0 1.32 0 2 C2.31 2 4.62 2 7 2 C7.33 3.32 7.66 4.64 8 6 C6.58376784 6.05447047 5.16691809 6.09300508 3.75 6.125 C2.96109375 6.14820313 2.1721875 6.17140625 1.359375 6.1953125 C-1.20731941 5.9828378 -2.7916067 5.28654105 -5 4 C-4.67 3.01 -4.34 2.02 -4 1 C-2 0 -2 0 0 0 Z " fill="#801DAB" transform="translate(155,226)"/>
<path d="M0 0 C2.64 0 5.28 0 8 0 C8.66 0.66 9.32 1.32 10 2 C7.36 2 4.72 2 2 2 C2.309375 3.2375 2.309375 3.2375 2.625 4.5 C3.0940915 8.87818732 2.23317492 11.79269734 1 16 C0.67 16 0.34 16 0 16 C0 10.72 0 5.44 0 0 Z " fill="#5D01A7" transform="translate(315,15)"/>
<path d="M0 0 C2.3125 -0.3125 2.3125 -0.3125 5 0 C7.88378178 3.08266329 8.17469157 5.75222613 8.1875 9.8125 C8.13966204 11.20891272 8.08204828 12.60517921 8 14 C7.67 14 7.34 14 7 14 C7 11.69 7 9.38 7 7 C6.34 7 5.68 7 5 7 C5 5.68 5 4.36 5 3 C4.34 3 3.68 3 3 3 C2.67 3.66 2.34 4.32 2 5 C1.67 4.34 1.34 3.68 1 3 C0.01 3.33 -0.98 3.66 -2 4 C-1.34 2.68 -0.68 1.36 0 0 Z " fill="#923EA0" transform="translate(183,93)"/>
<path d="M0 0 C0.28875 0.639375 0.5775 1.27875 0.875 1.9375 C1.82823451 4.15206079 1.82823451 4.15206079 4 5 C3.67 5.99 3.34 6.98 3 8 C-0.5625 9.6875 -0.5625 9.6875 -4 11 C-4 7.80389448 -3.45328458 6.58282374 -2 3.8125 C-1.62875 3.09707031 -1.2575 2.38164063 -0.875 1.64453125 C-0.441875 0.83048828 -0.441875 0.83048828 0 0 Z " fill="#7718A7" transform="translate(157,45)"/>
<path d="M0 0 C3.21764451 4.82646677 4.36261136 10.19821824 4 16 C3.34 16.33 2.68 16.66 2 17 C1.4678559 14.91952703 0.94968214 12.83547707 0.4375 10.75 C0.14746094 9.58984375 -0.14257812 8.4296875 -0.44140625 7.234375 C-0.95179964 4.27909017 -1.02996165 2.75565899 0 0 Z " fill="#8628A5" transform="translate(346,193)"/>
<path d="M0 0 C1.67542976 0.28604898 3.34385343 0.61781233 5 1 C3.68 1.33 2.36 1.66 1 2 C1 11.9 1 21.8 1 32 C0.67 32 0.34 32 0 32 C-0.16726689 27.60364953 -0.32786093 23.20712239 -0.48217773 18.81030273 C-0.53566434 17.31349062 -0.5909987 15.81674337 -0.64819336 14.32006836 C-0.72991956 12.17315668 -0.8050746 10.02610207 -0.87890625 7.87890625 C-0.9260376 6.5854126 -0.97316895 5.29191895 -1.02172852 3.95922852 C-1 1 -1 1 0 0 Z " fill="#9F41AB" transform="translate(129,58)"/>
<path d="M0 0 C0.33 0 0.66 0 1 0 C2.6120509 6.76485645 3.26618595 13.04958914 3 20 C0.87207914 16.8081187 0.43241437 14.86313026 -0.1875 11.125 C-0.36667969 10.09632812 -0.54585938 9.06765625 -0.73046875 8.0078125 C-0.99467297 5.05944662 -0.74100354 2.8483966 0 0 Z " fill="#852AA5" transform="translate(330,55)"/>
<path d="M0 0 C3.96 0 7.92 0 12 0 C12.33 4.95 12.66 9.9 13 15 C10 12 10 12 9.92578125 9.30078125 C10.28385417 6.53385417 10.64192708 3.76692708 11 1 C7.37 1 3.74 1 0 1 C0 0.67 0 0.34 0 0 Z " fill="#8F38A5" transform="translate(248,15)"/>
<path d="M0 0 C1.98 0 3.96 0 6 0 C6 3.31439938 5.83218656 4.2915503 4 7 C1.75903656 8.81140232 -0.58768867 10.42619261 -3 12 C-3.66 11.67 -4.32 11.34 -5 11 C-4.2575 10.443125 -3.515 9.88625 -2.75 9.3125 C-0.08292005 7.06972822 1.91556232 4.77925025 4 2 C2.68 1.34 1.36 0.68 0 0 Z " fill="#8833A5" transform="translate(139,27)"/>
<path d="M0 0 C0.33 0 0.66 0 1 0 C2.79283851 7.37822 3.15814639 12.68628168 1 20 C0.67 20 0.34 20 0 20 C0 13.4 0 6.8 0 0 Z " fill="#5D01A6" transform="translate(249,21)"/>
<path d="M0 0 C0.66 0 1.32 0 2 0 C2 0.66 2 1.32 2 2 C5.65079826 3.61064629 9.0507432 4.44894091 13 5 C13 5.66 13 6.32 13 7 C7.72611976 7.50227431 5.08984305 6.32894202 1 3 C0.67 2.01 0.34 1.02 0 0 Z " fill="#7921A7" transform="translate(62,222)"/>
<path d="M0 0 C2.4375 0.375 2.4375 0.375 5 1 C6.33332095 3.6666419 5.67102033 5.16680303 5 8 C3.68 7.01 2.36 6.02 1 5 C1.33 4.34 1.66 3.68 2 3 C1.34 3 0.68 3 0 3 C0 2.01 0 1.02 0 0 Z " fill="#7B1EA5" transform="translate(64,93)"/>
<path d="M0 0 C0.66 0 1.32 0 2 0 C1.25 7.625 1.25 7.625 -1 11 C-3.42857143 4.71428571 -3.42857143 4.71428571 -2 1 C-1.67 1.66 -1.34 2.32 -1 3 C-0.67 2.01 -0.34 1.02 0 0 Z " fill="#963FA1" transform="translate(250,85)"/>
<path d="M0 0 C2 4 2 4 1.4375 6.1875 C0 8 0 8 -5 9 C-3.35 6.03 -1.7 3.06 0 0 Z " fill="#8225A7" transform="translate(312,35)"/>
<path d="M0 0 C0.7425 0.598125 1.485 1.19625 2.25 1.8125 C4.47417764 3.58173222 6.71662235 5.30860915 9 7 C6.69 6.67 4.38 6.34 2 6 C1.67 6.66 1.34 7.32 1 8 C0.67 5.36 0.34 2.72 0 0 Z " fill="#791DA6" transform="translate(168,26)"/>
<path d="M0 0 C2.40034102 3.60051153 4.32187705 6.96144535 3.625 11.375 C3.41875 11.91125 3.2125 12.4475 3 13 C-0.36055646 8.51925805 -0.27429625 5.39449293 0 0 Z " fill="#9137A4" transform="translate(330,131)"/>
<path d="M0 0 C0 1.32 0 2.64 0 4 C-1.98 4.33 -3.96 4.66 -6 5 C-6 3.68 -6 2.36 -6 1 C-3.92446352 0.4465236 -2.15634036 0 0 0 Z " fill="#670AA7" transform="translate(142,102)"/>
<path d="M0 0 C0.33 0.66 0.66 1.32 1 2 C0.67 2.99 0.34 3.98 0 5 C0.66 5 1.32 5 2 5 C2.625 8.375 2.625 8.375 3 12 C2.34 12.66 1.68 13.32 1 14 C-1.38297872 5.21276596 -1.38297872 5.21276596 -1 1 C-0.67 0.67 -0.34 0.34 0 0 Z " fill="#8225A9" transform="translate(251,95)"/>
<path d="M0 0 C0.66 0 1.32 0 2 0 C0.4169423 4.2742558 -2.50568404 6.26531794 -6 9 C-6 8.01 -6 7.02 -6 6 C-5.01 5.67 -4.02 5.34 -3 5 C-1.8499169 3.03327085 -1.8499169 3.03327085 -1 1 C-0.67 0.67 -0.34 0.34 0 0 Z " fill="#7823A6" transform="translate(150,37)"/>
<path d="M0 0 C-2 2 -2 2 -4.6015625 2.1953125 C-5.59929687 2.17210937 -6.59703125 2.14890625 -7.625 2.125 C-9.12933594 2.09792969 -9.12933594 2.09792969 -10.6640625 2.0703125 C-11.43492187 2.04710937 -12.20578125 2.02390625 -13 2 C-13 1.67 -13 1.34 -13 1 C-11.58622218 0.63447197 -10.16879424 0.28304505 -8.75 -0.0625 C-7.96109375 -0.25972656 -7.1721875 -0.45695313 -6.359375 -0.66015625 C-3.89605178 -1.01497267 -2.34395868 -0.76877544 0 0 Z " fill="#862CA5" transform="translate(180,217)"/>
<path d="M0 0 C0.81210937 0.29003906 1.62421875 0.58007812 2.4609375 0.87890625 C3.27820312 1.16636719 4.09546875 1.45382813 4.9375 1.75 C5.56398438 1.97816406 6.19046875 2.20632812 6.8359375 2.44140625 C6.8359375 3.10140625 6.8359375 3.76140625 6.8359375 4.44140625 C5.37578459 4.15898984 3.91783957 3.86514011 2.4609375 3.56640625 C1.64882813 3.40398437 0.83671875 3.2415625 0 3.07421875 C-2.1640625 2.44140625 -2.1640625 2.44140625 -4.1640625 0.44140625 C-2.1640625 -0.55859375 -2.1640625 -0.55859375 0 0 Z " fill="#7D21A8" transform="translate(49.1640625,130.55859375)"/>
<path d="M0 0 C0.66 0 1.32 0 2 0 C3.85776765 3.13498292 4.20140476 5.37471432 4 9 C3.01 9.495 3.01 9.495 2 10 C1.34 9.34 0.68 8.68 0 8 C0.66 8 1.32 8 2 8 C1.34 5.36 0.68 2.72 0 0 Z " fill="#801FA9" transform="translate(221,102)"/>
<path d="M0 0 C2.50298434 2.93828597 3.46930939 5.17902761 4 9 C3.01 9.495 3.01 9.495 2 10 C-0.4294516 6.3558226 -0.16179575 4.28758728 0 0 Z " fill="#791DA5" transform="translate(215,58)"/>
<path d="M0 0 C0.95465783 2.16967689 1.14401212 3.56328793 0.3984375 5.82421875 C-0.35870385 7.5684743 -1.17609198 9.28627131 -2 11 C-2.95465783 8.83032311 -3.14401212 7.43671207 -2.3984375 5.17578125 C-1.64129615 3.4315257 -0.82390802 1.71372869 0 0 Z " fill="#6A0AA9" transform="translate(251,150)"/>
<path d="M0 0 C3.96 0 7.92 0 12 0 C11.67 0.66 11.34 1.32 11 2 C10.34 1.67 9.68 1.34 9 1 C9 1.66 9 2.32 9 3 C2.84765625 2.4140625 2.84765625 2.4140625 1 2 C0.67 1.34 0.34 0.68 0 0 Z " fill="#6C06A8" transform="translate(25,121)"/>
<path d="M0 0 C0.33 0 0.66 0 1 0 C1 2.64 1 5.28 1 8 C1.66 8 2.32 8 3 8 C3 7.34 3 6.68 3 6 C3.99 6.33 4.98 6.66 6 7 C5 9 5 9 3 9.6875 C2.34 9.790625 1.68 9.89375 1 10 C0 9 0 9 -0.09765625 6.93359375 C-0.08605469 6.10988281 -0.07445312 5.28617188 -0.0625 4.4375 C-0.05347656 3.61121094 -0.04445312 2.78492188 -0.03515625 1.93359375 C-0.02355469 1.29550781 -0.01195312 0.65742188 0 0 Z " fill="#9F42A7" transform="translate(225,215)"/>
<path d="M0 0 C0.78375 0.04125 1.5675 0.0825 2.375 0.125 C2.045 1.775 1.715 3.425 1.375 5.125 C0.715 5.125 0.055 5.125 -0.625 5.125 C-0.625 4.465 -0.625 3.805 -0.625 3.125 C-1.945 2.795 -3.265 2.465 -4.625 2.125 C-2.625 0.125 -2.625 0.125 0 0 Z " fill="#6D0DAA" transform="translate(211.625,115.875)"/>
<path d="M0 0 C0 0.66 0 1.32 0 2 C-3.26913624 3.03115279 -5.86041348 2.9638984 -9.25 2.5625 C-10.14203125 2.46066406 -11.0340625 2.35882813 -11.953125 2.25390625 C-12.62859375 2.17011719 -13.3040625 2.08632813 -14 2 C-14 1.67 -14 1.34 -14 1 C-12.22932584 0.83165067 -10.45845388 0.66538091 -8.6875 0.5 C-7.70136719 0.4071875 -6.71523438 0.314375 -5.69921875 0.21875 C-3 0 -3 0 0 0 Z " fill="#9F43A7" transform="translate(297,52)"/>
<path d="M0 0 C1.125 1.75 1.125 1.75 2 4 C1.07451225 6.69933926 0.57626463 7.71186768 -2 9 C-1.125 1.125 -1.125 1.125 0 0 Z " fill="#6E06AB" transform="translate(244,140)"/>
<path d="M0 0 C-2.97 1.32 -5.94 2.64 -9 4 C-9 3.01 -9 2.02 -9 1 C-5.19495213 -0.79682816 -4.29399165 -1.07349791 0 0 Z " fill="#8126A6" transform="translate(229,121)"/>
</svg>
